<?xml version="1.0" encoding="UTF-8" standalone="no"?>
<!-- Created with Inkscape (http://www.inkscape.org/) -->

<svg
   xmlns:dc="http://purl.org/dc/elements/1.1/"
   xmlns:cc="http://creativecommons.org/ns#"
   xmlns:rdf="http://www.w3.org/1999/02/22-rdf-syntax-ns#"
   xmlns:svg="http://www.w3.org/2000/svg"
   xmlns="http://www.w3.org/2000/svg"
   xmlns:sodipodi="http://sodipodi.sourceforge.net/DTD/sodipodi-0.dtd"
   xmlns:inkscape="http://www.inkscape.org/namespaces/inkscape"
   width="354.33069"
   height="354.33069"
   id="svg3932"
   version="1.1"
   inkscape:version="0.48.2 r9819"
   sodipodi:docname="New document 12">
  <defs
     id="defs3934" />
  <sodipodi:namedview
     id="base"
     pagecolor="#ffffff"
     bordercolor="#666666"
     borderopacity="1.0"
     inkscape:pageopacity="0.0"
     inkscape:pageshadow="2"
     inkscape:zoom="0.92227716"
     inkscape:cx="125.29799"
     inkscape:cy="209.33933"
     inkscape:document-units="mm"
     inkscape:current-layer="layer1"
     showgrid="false"
     units="mm"
     inkscape:window-width="986"
     inkscape:window-height="675"
     inkscape:window-x="63"
     inkscape:window-y="16"
     inkscape:window-maximized="0" />
  <metadata
     id="metadata3937">
    <rdf:RDF>
      <cc:Work
         rdf:about="">
        <dc:format>image/svg+xml</dc:format>
        <dc:type
           rdf:resource="http://purl.org/dc/dcmitype/StillImage" />
        <dc:title></dc:title>
      </cc:Work>
    </rdf:RDF>
  </metadata>
  <g
     inkscape:label="Layer 1"
     inkscape:groupmode="layer"
     id="layer1"
     transform="translate(0,-698.03149)">
    <rect
       style="fill:#000000;fill-opacity:1;stroke:none"
       id="rect3942"
       width="354.33072"
       height="354.33072"
       x="0"
       y="698.03149" />
    <path
       sodipodi:type="arc"
       style="fill:#ffffff;fill-opacity:1;stroke:none"
       id="path3944"
       sodipodi:cx="171.31509"
       sodipodi:cy="173.25714"
       sodipodi:rx="20.601183"
       sodipodi:ry="20.601183"
       d="m 191.91628,173.25714 a 20.601183,20.601183 0 1 1 -41.20237,0 20.601183,20.601183 0 1 1 41.20237,0 z"
       transform="matrix(0.85997661,0,0,0.85997661,29.838381,726.19974)" />
    <path
       sodipodi:type="arc"
       style="fill:none;stroke:#ffffff;stroke-width:3.54330707;stroke-linecap:square;stroke-linejoin:miter;stroke-miterlimit:4;stroke-opacity:1;stroke-dasharray:none;stroke-dashoffset:0"
       id="path3946"
       sodipodi:cx="173.48364"
       sodipodi:cy="150.48741"
       sodipodi:rx="72.646271"
       sodipodi:ry="74.814819"
       d="m 246.12991,150.48741 a 72.646271,74.814819 0 1 1 -145.29254,0 72.646271,74.814819 0 1 1 145.29254,0 z"
       transform="matrix(1.1907544,0,0,1.1562398,-29.411062,701.19729)" />
    <rect
       style="fill:#ff0000;fill-opacity:1;stroke:none"
       id="rect4456"
       width="17.716536"
       height="17.716536"
       x="58.202801"
       y="742.97626" />
    <rect
       y="751.65045"
       x="282.64728"
       height="17.716536"
       width="17.716536"
       id="rect4458"
       style="fill:#00ffff;fill-opacity:1;stroke:none" />
    <rect
       y="983.68481"
       x="289.15292"
       height="17.716536"
       width="17.716536"
       id="rect4462"
       style="fill:#800080;fill-opacity:1;stroke:none" />
    <rect
       style="fill:#cccccc;fill-opacity:1;stroke:none"
       id="rect4464"
       width="17.716536"
       height="17.716536"
       x="63.08205"
       y="994.52753" />
    <rect
       style="fill:#0000ff;fill-opacity:1;stroke:none"
       id="rect4466"
       width="17.716536"
       height="17.716536"
       x="177.47281"
       y="725.08575" />
    <path
       style="fill:#00ffff;fill-opacity:0.50196081;fill-rule:nonzero;stroke:none"
       d="m 307.4375,762.28149 0,-17.71875 -17.71875,0 0,7.09375 10.625,0 0,10.625 7.09375,0 z"
       id="rect4474"
       inkscape:connector-curvature="0" />
    <path
       inkscape:connector-curvature="0"
       id="path4505"
       d="m 314.52387,755.19564 0,-17.71875 -17.71875,0 0,7.09375 10.625,0 0,10.625 7.09375,0 z"
       style="fill:#00ffff;fill-opacity:0.25098041;fill-rule:nonzero;stroke:none" />
    <rect
       y="717.99799"
       x="177.47281"
       height="17.716536"
       width="17.716536"
       id="rect4507"
       style="fill:#0000ff;fill-opacity:0.25098041;stroke:none" />
    <rect
       style="fill:#0000ff;fill-opacity:0.25098041;stroke:none"
       id="rect4509"
       width="17.716536"
       height="17.716536"
       x="177.47281"
       y="710.91138" />
    <path
       style="fill:#ff0000;fill-opacity:0.50196078;stroke:none"
       d="m 58.21875,753.59399 0,-10.65625 10.625,0 0,-7.0625 -17.71875,0 0,17.71875 7.09375,0 z"
       id="rect4512"
       inkscape:connector-curvature="0" />
    <path
       inkscape:connector-curvature="0"
       id="path4528"
       d="m 51.133514,746.50745 0,-10.65625 10.625,0 0,-7.0625 -17.71875,0 0,17.71875 7.09375,0 z"
       style="fill:#ff0000;fill-opacity:0.25098041;stroke:none" />
    <path
       style="fill:#cccccc;fill-opacity:0.50196078;stroke:none"
       d="m 73.718775,1019.344 0,-7.0625 -10.625,0 0,-10.6563 -7.0938,0 0,17.7188 17.7188,0 z"
       id="rect4530"
       inkscape:connector-curvature="0" />
    <path
       inkscape:connector-curvature="0"
       id="path4535"
       d="m 66.630611,1026.4323 0,-7.0625 -10.625,0 0,-10.6563 -7.0938,0 0,17.7188 17.7188,0 z"
       style="fill:#cccccc;fill-opacity:0.25098041;stroke:none" />
    <path
       style="fill:#800080;fill-opacity:0.50196078;stroke:none"
       d="m 313.96873,1008.5002 0,-17.71873 -7.0625,0 0,10.65623 -10.65621,0 0,7.0625 17.71871,0 z"
       id="rect4537"
       inkscape:connector-curvature="0" />
    <path
       inkscape:connector-curvature="0"
       id="path4542"
       d="m 321.05414,1015.5862 0,-17.71877 -7.0625,0 0,10.65627 -10.65621,0 0,7.0625 17.71871,0 z"
       style="fill:#800080;fill-opacity:0.25098039;stroke:none" />
  </g>
</svg>
